<svg width="100" height="100" viewBox="0 0 100 100" fill="none" xmlns="http://www.w3.org/2000/svg">
<g clip-path="url(#clip0_159_176)">
<path d="M25.36 80.08V88H23.272V83.74L23.362 82.246L23.02 83.98L21.91 87.292H19.87L18.766 83.98L18.43 82.246L18.514 83.74V88H16.432V80.08H19.396L20.77 85.006L20.896 85.72L21.016 85.006L22.39 80.08H25.36ZM29.3142 80.08H31.3662L34.5702 88H32.3442L31.8042 86.53H28.8822L28.3422 88H26.1042L29.3142 80.08ZM29.5782 84.712H31.1082L30.3522 82.588H30.3342L29.5782 84.712ZM38.8377 83.872L41.7537 88H39.2697L37.0317 84.61V88H34.9437V80.08H37.0317V83.176L39.0717 80.08H41.4237L38.8377 83.872ZM42.389 80.08H47.591V81.898H44.477V83.152H47.579V84.91H44.477V86.182H47.591V88H42.389V80.08ZM48.7981 80.08H52.2061C52.6781 80.08 53.0961 80.18 53.4601 80.38C53.8241 80.576 54.1101 80.858 54.3181 81.226C54.5301 81.594 54.6361 82.032 54.6361 82.54C54.6361 83.044 54.5501 83.454 54.3781 83.77C54.2061 84.086 54.0001 84.322 53.7601 84.478C53.5201 84.634 53.3001 84.732 53.1001 84.772L55.0081 88H52.6621L50.9941 84.934H50.8921V88H48.7981V80.08ZM50.8921 83.506H51.4561C51.7161 83.506 51.9521 83.444 52.1641 83.32C52.3801 83.196 52.4881 82.958 52.4881 82.606C52.4881 82.258 52.3821 82.022 52.1701 81.898C51.9621 81.774 51.7301 81.712 51.4741 81.712H50.8921V83.506ZM57.5878 84.034C57.5878 84.434 57.6678 84.798 57.8278 85.126C57.9918 85.45 58.2198 85.708 58.5118 85.9C58.8038 86.092 59.1438 86.188 59.5318 86.188C59.9198 86.188 60.2598 86.092 60.5518 85.9C60.8438 85.708 61.0698 85.45 61.2298 85.126C61.3938 84.798 61.4758 84.434 61.4758 84.034C61.4758 83.634 61.3938 83.272 61.2298 82.948C61.0698 82.624 60.8438 82.366 60.5518 82.174C60.2598 81.978 59.9198 81.88 59.5318 81.88C59.1438 81.88 58.8038 81.978 58.5118 82.174C58.2198 82.366 57.9918 82.624 57.8278 82.948C57.6678 83.272 57.5878 83.634 57.5878 84.034ZM55.4098 84.034C55.4098 83.458 55.5138 82.922 55.7218 82.426C55.9298 81.926 56.2198 81.49 56.5918 81.118C56.9638 80.746 57.3998 80.456 57.8998 80.248C58.4038 80.04 58.9478 79.936 59.5318 79.936C60.1238 79.936 60.6698 80.04 61.1698 80.248C61.6698 80.456 62.1058 80.746 62.4778 81.118C62.8498 81.49 63.1378 81.926 63.3418 82.426C63.5458 82.922 63.6478 83.458 63.6478 84.034C63.6478 84.614 63.5478 85.154 63.3478 85.654C63.1478 86.15 62.8638 86.586 62.4958 86.962C62.1318 87.334 61.6978 87.624 61.1938 87.832C60.6898 88.04 60.1358 88.144 59.5318 88.144C58.9078 88.144 58.3438 88.04 57.8398 87.832C57.3358 87.624 56.9018 87.334 56.5378 86.962C56.1778 86.586 55.8998 86.15 55.7038 85.654C55.5078 85.154 55.4098 84.614 55.4098 84.034ZM66.5878 84.034C66.5878 84.434 66.6678 84.798 66.8278 85.126C66.9918 85.45 67.2198 85.708 67.5118 85.9C67.8038 86.092 68.1438 86.188 68.5318 86.188C68.9198 86.188 69.2598 86.092 69.5518 85.9C69.8438 85.708 70.0698 85.45 70.2298 85.126C70.3938 84.798 70.4758 84.434 70.4758 84.034C70.4758 83.634 70.3938 83.272 70.2298 82.948C70.0698 82.624 69.8438 82.366 69.5518 82.174C69.2598 81.978 68.9198 81.88 68.5318 81.88C68.1438 81.88 67.8038 81.978 67.5118 82.174C67.2198 82.366 66.9918 82.624 66.8278 82.948C66.6678 83.272 66.5878 83.634 66.5878 84.034ZM64.4098 84.034C64.4098 83.458 64.5138 82.922 64.7218 82.426C64.9298 81.926 65.2198 81.49 65.5918 81.118C65.9638 80.746 66.3998 80.456 66.8998 80.248C67.4038 80.04 67.9478 79.936 68.5318 79.936C69.1238 79.936 69.6698 80.04 70.1698 80.248C70.6698 80.456 71.1058 80.746 71.4778 81.118C71.8498 81.49 72.1378 81.926 72.3418 82.426C72.5458 82.922 72.6478 83.458 72.6478 84.034C72.6478 84.614 72.5478 85.154 72.3478 85.654C72.1478 86.15 71.8638 86.586 71.4958 86.962C71.1318 87.334 70.6978 87.624 70.1938 87.832C69.6898 88.04 69.1358 88.144 68.5318 88.144C67.9078 88.144 67.3438 88.04 66.8398 87.832C66.3358 87.624 65.9018 87.334 65.5378 86.962C65.1778 86.586 64.8998 86.15 64.7038 85.654C64.5078 85.154 64.4098 84.614 64.4098 84.034ZM82.5358 80.08V88H80.4478V83.74L80.5378 82.246L80.1958 83.98L79.0858 87.292H77.0458L75.9418 83.98L75.6058 82.246L75.6898 83.74V88H73.6078V80.08H76.5718L77.9458 85.006L78.0718 85.72L78.1918 85.006L79.5658 80.08H82.5358Z" fill="#1E1E1E"/>
<path d="M50.0002 39.7247L47.3252 44.3747C46.7252 45.3998 47.2252 46.2498 48.4002 46.2498H51.5752C52.7752 46.2498 53.2502 47.0998 52.6502 48.1248L50.0002 52.7748" stroke="#FD9327" stroke-width="3.75" stroke-linecap="round" stroke-linejoin="round"/>
<path d="M40.7504 65.0998V62.1998C35.0004 58.7248 30.2754 51.9498 30.2754 44.7498C30.2754 32.3748 41.6504 22.6748 54.5004 25.4748C60.1504 26.7248 65.1004 30.4748 67.6754 35.6498C72.9004 46.1498 67.4004 57.2998 59.3254 62.1748V65.0748C59.3254 65.7998 59.6004 67.4748 56.9254 67.4748H43.1504C40.4004 67.4998 40.7504 66.4248 40.7504 65.0998Z" stroke="#FD9327" stroke-width="3.75" stroke-linecap="round" stroke-linejoin="round"/>
<path d="M41.25 75C46.975 73.375 53.025 73.375 58.75 75" stroke="#FD9327" stroke-width="3.75" stroke-linecap="round" stroke-linejoin="round"/>
</g>
<defs>
<clipPath id="clip0_159_176">
<rect width="100" height="100" fill="white"/>
</clipPath>
</defs>
</svg>
