<svg xmlns="http://www.w3.org/2000/svg" xmlns:xlink="http://www.w3.org/1999/xlink" viewBox="0 0 430 430" width="430" height="430" preserveAspectRatio="xMidYMid meet" style="width: 100%; height: 100%; transform: translate3d(0px, 0px, 0px); content-visibility: visible;"><defs><clipPath id="__lottie_element_413"><rect width="430" height="430" x="0" y="0"/></clipPath><clipPath id="__lottie_element_415"><path d="M0,0 L430,0 L430,430 L0,430z"/></clipPath><g id="__lottie_element_422"><g transform="matrix(0.9552811980247498,-0.2956989109516144,0.2956989109516144,0.9552811980247498,-31.827301025390625,101.31576538085938)" opacity="1" style="display: block;"><path fill="rgb(255,0,0)" fill-opacity="1" d=" M414.9330139160156,159.51100158691406 C414.9330139160156,159.51100158691406 362.8590087890625,159.46600341796875 362.8590087890625,159.46600341796875 C362.8590087890625,159.46600341796875 345.6860046386719,182.2270050048828 345.6860046386719,182.2270050048828 C345.6860046386719,182.2270050048828 362.5870056152344,204.71600341796875 362.5870056152344,204.71600341796875 C362.5870056152344,204.71600341796875 414.7969970703125,204.76100158691406 414.7969970703125,204.76100158691406 C414.7969970703125,204.76100158691406 397.89599609375,182 397.89599609375,182 C397.89599609375,182 414.9330139160156,159.51100158691406 414.9330139160156,159.51100158691406z M204.75,182.375 C307.75,182.375 346.75,182.375 346.75,182.375"/><g opacity="1" transform="matrix(1,0,0,1,0,0)"><path stroke-linecap="round" stroke-linejoin="round" fill-opacity="0" class="secondary" stroke="rgb(252,146,39)" stroke-opacity="1" stroke-width="0" d=" M414.9330139160156,159.51100158691406 C414.9330139160156,159.51100158691406 362.8590087890625,159.46600341796875 362.8590087890625,159.46600341796875 C362.8590087890625,159.46600341796875 345.6860046386719,182.2270050048828 345.6860046386719,182.2270050048828 C345.6860046386719,182.2270050048828 362.5870056152344,204.71600341796875 362.5870056152344,204.71600341796875 C362.5870056152344,204.71600341796875 414.7969970703125,204.76100158691406 414.7969970703125,204.76100158691406 C414.7969970703125,204.76100158691406 397.89599609375,182 397.89599609375,182 C397.89599609375,182 414.9330139160156,159.51100158691406 414.9330139160156,159.51100158691406z M204.75,182.375 C307.75,182.375 346.75,182.375 346.75,182.375"/></g></g></g><filter id="__lottie_element_428" filterUnits="objectBoundingBox" x="0%" y="0%" width="100%" height="100%"><feComponentTransfer in="SourceGraphic"><feFuncA type="table" tableValues="1.0 0.0"/></feComponentTransfer></filter><mask id="__lottie_element_422_2" mask-type="alpha"><g filter="url(#__lottie_element_428)"><rect width="430" height="430" x="0" y="0" fill="#ffffff" opacity="0"/><use xmlns:ns1="http://www.w3.org/1999/xlink" ns1:href="#__lottie_element_422"/></g></mask></defs><g clip-path="url(#__lottie_element_413)"><g clip-path="url(#__lottie_element_415)" transform="matrix(1,0,0,1,0,0)" opacity="1" style="display: block;"><g mask="url(#__lottie_element_422_2)" style="display: block;"><g transform="matrix(1,0,0,1,235,237)" opacity="1"><g opacity="1" transform="matrix(1,0,0,1,-19,-2)"><path stroke-linecap="butt" stroke-linejoin="miter" fill-opacity="0" stroke-miterlimit="4" class="primary" stroke="rgb(18,19,49)" stroke-opacity="1" stroke-width="18.9" d=" M0,-183 C-89.47000122070312,-183 -162,-110.47000122070312 -162,-21 C-162,68.47000122070312 -89.47000122070312,141 0,141 C89.47000122070312,141 162,68.47000122070312 162,-21 C162,-110.47000122070312 89.47000122070312,-183 0,-183z M0,-137 C-64.06500244140625,-137 -116,-85.06500244140625 -116,-21 C-116,43.064998626708984 -64.06500244140625,95 0,95 C64.06500244140625,95 116,43.064998626708984 116,-21 C116,-85.06500244140625 64.06500244140625,-137 0,-137z M0,-89 C-37.55500030517578,-89 -68,-58.55500030517578 -68,-21 C-68,16.55500030517578 -37.55500030517578,47 0,47 C37.55500030517578,47 68,16.55500030517578 68,-21 C68,-58.55500030517578 37.55500030517578,-89 0,-89z"/></g><g opacity="1" transform="matrix(1,0,0,1,-19,-2)"><path stroke-linecap="butt" stroke-linejoin="miter" fill-opacity="0" stroke-miterlimit="4" class="primary" stroke="rgb(18,19,49)" stroke-opacity="1" stroke-width="18.9" d=" M0,-44 C-12.70300006866455,-44 -23,-33.702999114990234 -23,-21 C-23,-8.29699993133545 -12.70300006866455,2 0,2 C12.70300006866455,2 23,-8.29699993133545 23,-21 C23,-33.702999114990234 12.70300006866455,-44 0,-44z"/><path class="primary" fill="rgb(18,19,49)" fill-opacity="1" d=" M0,-44 C-12.70300006866455,-44 -23,-33.702999114990234 -23,-21 C-23,-8.29699993133545 -12.70300006866455,2 0,2 C12.70300006866455,2 23,-8.29699993133545 23,-21 C23,-33.702999114990234 12.70300006866455,-44 0,-44z"/></g></g></g><g transform="matrix(0.9552811980247498,-0.2956989109516144,0.2956989109516144,0.9552811980247498,-31.827301025390625,101.31576538085938)" opacity="1" style="display: block;"><g opacity="1" transform="matrix(1,0,0,1,0,0)"><path stroke-linecap="round" stroke-linejoin="round" fill-opacity="0" class="secondary" stroke="rgb(252,146,39)" stroke-opacity="1" stroke-width="18.9" d=" M414.9330139160156,159.51100158691406 C414.9330139160156,159.51100158691406 362.8590087890625,159.46600341796875 362.8590087890625,159.46600341796875 C362.8590087890625,159.46600341796875 345.6860046386719,182.2270050048828 345.6860046386719,182.2270050048828 C345.6860046386719,182.2270050048828 362.5870056152344,204.71600341796875 362.5870056152344,204.71600341796875 C362.5870056152344,204.71600341796875 414.7969970703125,204.76100158691406 414.7969970703125,204.76100158691406 C414.7969970703125,204.76100158691406 397.89599609375,182 397.89599609375,182 C397.89599609375,182 414.9330139160156,159.51100158691406 414.9330139160156,159.51100158691406z M204.75,182.375 C307.75,182.375 346.75,182.375 346.75,182.375"/></g></g><g transform="matrix(0.7071067690849304,-0.7071067690849304,0.7071067690849304,0.7071067690849304,-55.760894775390625,230.67909240722656)" opacity="1" style="display: none;"><g opacity="1" transform="matrix(1,0,0,1,0,0)"><path stroke-linecap="round" stroke-linejoin="round" fill-opacity="0" class="secondary" stroke="rgb(252,146,39)" stroke-opacity="1" stroke-width="18.9" d=" M414.9330139160156,159.51100158691406 C414.9330139160156,159.51100158691406 362.8590087890625,159.46600341796875 362.8590087890625,159.46600341796875 C362.8590087890625,159.46600341796875 345.6860046386719,182.2270050048828 345.6860046386719,182.2270050048828 C345.6860046386719,182.2270050048828 362.5870056152344,204.71600341796875 362.5870056152344,204.71600341796875 C362.5870056152344,204.71600341796875 414.7969970703125,204.76100158691406 414.7969970703125,204.76100158691406 C414.7969970703125,204.76100158691406 397.89599609375,182 397.89599609375,182 C397.89599609375,182 414.9330139160156,159.51100158691406 414.9330139160156,159.51100158691406z M204.75,182.375 C307.75,182.375 346.75,182.375 346.75,182.375"/></g></g></g></g></svg>