<svg width="343" height="426" viewBox="0 0 343 426" fill="none" xmlns="http://www.w3.org/2000/svg">
<path d="M171.513 141.409L153 173.727C148.848 180.851 152.308 186.759 160.44 186.759H182.413C190.718 186.759 194.006 192.666 189.853 199.79L171.513 232.107" stroke="#FD9327" stroke-width="29.75" stroke-linecap="round" stroke-linejoin="round"/>
<path d="M107.495 317.766V297.611C67.7008 273.46 35 226.373 35 176.333C35 90.3272 113.724 22.9122 202.656 42.3722C241.759 51.0597 276.017 77.1222 293.838 113.088C329.999 186.063 291.935 263.556 236.049 297.437V317.592C236.049 322.631 237.952 334.272 219.439 334.272H124.105C105.073 334.446 107.495 326.975 107.495 317.766Z" stroke="#FD9327" stroke-width="30.75" stroke-linecap="round" stroke-linejoin="round"/>
<path d="M110.953 386.572C150.575 375.279 192.446 375.279 232.067 386.572" stroke="#FD9327" stroke-width="30.75" stroke-linecap="round" stroke-linejoin="round"/>
</svg>
